<?xml version="1.0" encoding="UTF-8"?>
<svg xmlns="http://www.w3.org/2000/svg" xmlns:xlink="http://www.w3.org/1999/xlink" width="119pt" height="51pt" viewBox="0 0 119 51" version="1.1">
<g id="surface1">
<path style=" stroke:none;fill-rule:nonzero;fill:rgb(4.705882%,62.352941%,70.980392%);fill-opacity:1;" d="M 119 21.84375 C 119 31.328125 112.582031 38.011719 103.710938 38.011719 C 94.839844 38.011719 88.421875 31.328125 88.421875 21.84375 C 88.421875 12.984375 95.753906 6.761719 103.710938 6.761719 C 111.671875 6.761719 119 12.984375 119 21.84375 M 95.898438 21.882812 C 95.898438 26.9375 99.421875 30.625 103.710938 30.625 C 108.003906 30.625 111.523438 26.9375 111.523438 21.882812 C 111.523438 17.839844 108.003906 14.148438 103.710938 14.148438 C 99.421875 14.148438 95.898438 17.839844 95.898438 21.882812 "/>
<path style=" stroke:none;fill-rule:nonzero;fill:rgb(71.764706%,83.529412%,16.862745%);fill-opacity:1;" d="M 20.097656 26.394531 L 20.097656 26.515625 C 20.15625 27.746094 21.015625 28.480469 22.476562 28.542969 L 38.210938 28.542969 C 39.386719 25.980469 40.046875 23.125 40.046875 20.121094 C 40.046875 9.035156 31.121094 0.0429688 20.097656 0 L 20.097656 26.394531 "/>
<path style=" stroke:none;fill-rule:nonzero;fill:rgb(92.941176%,67.45098%,3.529412%);fill-opacity:1;" d="M 20.035156 38.003906 C 13.375 37.449219 10.621094 34.320312 10.621094 27.253906 L 10.621094 2.355469 C 4.304688 5.738281 0 12.425781 0 20.121094 C 0 31.230469 8.964844 40.238281 20.023438 40.238281 C 23.285156 40.238281 26.367188 39.457031 29.085938 38.066406 L 21.625 38.066406 C 21.132812 38.066406 20.585938 38.066406 20.035156 38.003906 "/>
<path style=" stroke:none;fill-rule:nonzero;fill:rgb(4.705882%,62.352941%,70.980392%);fill-opacity:1;" d="M 38.210938 28.542969 L 22.480469 28.542969 C 21.011719 28.484375 20.15625 27.746094 20.09375 26.519531 L 20.09375 0.00390625 C 20.070312 0.00390625 20.050781 0.00390625 20.023438 0.00390625 C 16.625 0.00390625 13.421875 0.851562 10.621094 2.355469 L 10.621094 27.253906 C 10.621094 34.316406 13.371094 37.453125 20.035156 38.007812 C 20.585938 38.0625 21.132812 38.0625 21.625 38.0625 L 29.085938 38.0625 C 33.09375 36.015625 36.320312 32.65625 38.210938 28.542969 "/>
<path style=" stroke:none;fill-rule:nonzero;fill:rgb(4.705882%,62.352941%,70.980392%);fill-opacity:1;" d="M 67.917969 21.871094 C 67.917969 31.425781 61.453125 38.164062 52.511719 38.164062 C 43.570312 38.164062 37.109375 31.425781 37.109375 21.871094 C 37.109375 12.941406 44.5 6.675781 52.511719 6.675781 C 60.53125 6.675781 67.917969 12.941406 67.917969 21.871094 M 44.644531 21.910156 C 44.644531 27.003906 48.191406 30.722656 52.511719 30.722656 C 56.835938 30.722656 60.378906 27.003906 60.378906 21.910156 C 60.378906 17.839844 56.835938 14.113281 52.511719 14.113281 C 48.191406 14.113281 44.644531 17.839844 44.644531 21.910156 "/>
<path style=" stroke:none;fill-rule:nonzero;fill:rgb(4.705882%,62.352941%,70.980392%);fill-opacity:1;" d="M 93.320312 41.960938 L 93.320312 22.75 C 93.335938 22.40625 93.34375 22.066406 93.34375 21.71875 C 93.34375 21.421875 93.335938 21.121094 93.320312 20.820312 L 93.320312 20.738281 C 93.3125 20.738281 93.3125 20.734375 93.3125 20.734375 C 92.792969 12.40625 85.710938 6.644531 78.054688 6.644531 C 70.101562 6.644531 62.769531 12.863281 62.769531 21.71875 C 62.769531 31.207031 69.1875 37.890625 78.054688 37.890625 C 81.003906 37.890625 83.679688 37.15625 85.9375 35.820312 L 85.9375 41.59375 C 85.894531 42.597656 85.195312 43.195312 84 43.242188 L 71.183594 43.242188 C 72.722656 46.597656 75.351562 49.335938 78.617188 51 L 85.988281 50.953125 C 91.417969 50.5 93.660156 47.949219 93.320312 41.960938 M 78.054688 30.507812 C 73.765625 30.507812 70.25 26.816406 70.25 21.761719 C 70.25 17.71875 73.765625 14.027344 78.054688 14.027344 C 82.347656 14.027344 85.867188 17.71875 85.867188 21.761719 C 85.867188 26.816406 82.347656 30.507812 78.054688 30.507812 "/>
<path style=" stroke:none;fill-rule:nonzero;fill:rgb(13.333333%,11.764706%,12.156863%);fill-opacity:1;" d="M 17.484375 18.636719 L 17.480469 18.585938 C 17.46875 18.484375 17.503906 18.371094 17.59375 18.261719 C 17.679688 18.160156 17.726562 18.085938 17.726562 18 C 17.726562 17.910156 17.671875 17.84375 17.550781 17.84375 C 17.484375 17.84375 17.40625 17.863281 17.363281 17.898438 L 17.316406 17.78125 C 17.378906 17.730469 17.484375 17.699219 17.585938 17.699219 C 17.804688 17.699219 17.898438 17.835938 17.898438 17.980469 C 17.898438 18.109375 17.828125 18.203125 17.738281 18.3125 C 17.65625 18.40625 17.625 18.488281 17.628906 18.585938 L 17.628906 18.636719 Z M 17.554688 19.019531 C 17.488281 19.019531 17.441406 18.96875 17.441406 18.902344 C 17.441406 18.832031 17.492188 18.785156 17.554688 18.785156 C 17.625 18.785156 17.667969 18.832031 17.667969 18.902344 C 17.667969 18.96875 17.625 19.019531 17.554688 19.019531 Z M 17.554688 19.019531 "/>
<path style=" stroke:none;fill-rule:nonzero;fill:rgb(4.705882%,62.352941%,70.980392%);fill-opacity:1;" d="M 111.828125 37.285156 L 111.828125 37.980469 L 111.730469 37.980469 L 111.730469 37.285156 L 111.484375 37.285156 L 111.484375 37.191406 L 112.074219 37.191406 L 112.074219 37.285156 Z M 111.828125 37.285156 "/>
<path style=" stroke:none;fill-rule:nonzero;fill:rgb(4.705882%,62.352941%,70.980392%);fill-opacity:1;" d="M 113.109375 37.980469 L 113.011719 37.980469 L 113.011719 37.4375 C 113.011719 37.34375 112.941406 37.261719 112.84375 37.261719 C 112.746094 37.261719 112.675781 37.34375 112.675781 37.4375 L 112.675781 37.980469 L 112.582031 37.980469 L 112.582031 37.4375 C 112.582031 37.34375 112.511719 37.261719 112.410156 37.261719 C 112.316406 37.261719 112.242188 37.34375 112.242188 37.4375 L 112.242188 37.980469 L 112.144531 37.980469 L 112.144531 37.4375 C 112.144531 37.292969 112.261719 37.171875 112.410156 37.171875 C 112.503906 37.171875 112.585938 37.222656 112.625 37.292969 C 112.671875 37.222656 112.746094 37.171875 112.84375 37.171875 C 112.992188 37.171875 113.109375 37.292969 113.109375 37.4375 L 113.109375 37.980469 "/>
<path style=" stroke:none;fill-rule:nonzero;fill:rgb(4.705882%,62.352941%,70.980392%);fill-opacity:1;" d="M 20.101562 37.964844 C 15.792969 37.589844 13.15625 36.136719 11.824219 33.410156 C 11.410156 32.558594 11.222656 31.988281 10.953125 30.738281 C 10.738281 29.757812 10.738281 29.675781 10.703125 16.0625 L 10.667969 2.371094 L 11.535156 1.964844 C 13.914062 0.855469 16.335938 0.242188 18.941406 0.09375 L 20.050781 0.0273438 L 20.050781 26.90625 L 20.328125 27.4375 C 20.558594 27.882812 20.695312 28.015625 21.183594 28.265625 L 21.761719 28.5625 L 29.933594 28.59375 L 38.105469 28.621094 L 37.753906 29.324219 C 36.105469 32.613281 33.152344 35.6875 29.8125 37.589844 L 29.035156 38.03125 L 24.765625 38.015625 C 22.417969 38.007812 20.316406 37.984375 20.101562 37.964844 Z M 17.664062 18.546875 C 17.632812 18.515625 17.578125 18.570312 17.539062 18.667969 C 17.488281 18.808594 17.5 18.820312 17.597656 18.722656 C 17.664062 18.65625 17.695312 18.578125 17.664062 18.546875 Z M 17.976562 17.980469 C 17.976562 17.9375 17.933594 17.90625 17.878906 17.90625 C 17.824219 17.90625 17.78125 18.003906 17.78125 18.128906 C 17.785156 18.308594 17.800781 18.324219 17.878906 18.203125 C 17.933594 18.121094 17.976562 18.019531 17.976562 17.980469 Z M 17.683594 17.804688 C 17.683594 17.75 17.636719 17.707031 17.582031 17.707031 C 17.53125 17.707031 17.484375 17.75 17.484375 17.804688 C 17.484375 17.859375 17.53125 17.90625 17.582031 17.90625 C 17.636719 17.90625 17.683594 17.859375 17.683594 17.804688 Z M 17.683594 17.804688 "/>
<path style=" stroke:none;fill-rule:nonzero;fill:rgb(4.705882%,62.352941%,70.980392%);fill-opacity:1;" d="M 19.605469 37.917969 C 18.394531 37.792969 16.78125 37.417969 15.847656 37.042969 C 13.0625 35.921875 11.621094 34.027344 10.90625 30.546875 C 10.757812 29.835938 10.738281 28.308594 10.707031 16.0625 L 10.667969 2.371094 L 11.535156 1.964844 C 13.902344 0.863281 16.351562 0.238281 18.890625 0.09375 L 20.050781 0.0273438 L 20.050781 13.453125 C 20.054688 26.308594 20.0625 26.894531 20.238281 27.273438 C 20.460938 27.761719 20.859375 28.148438 21.382812 28.386719 C 21.75 28.550781 22.320312 28.566406 29.941406 28.59375 L 38.105469 28.621094 L 37.722656 29.386719 C 36.105469 32.605469 33.175781 35.65625 29.859375 37.570312 L 29.058594 38.03125 L 24.777344 38.019531 C 22.421875 38.011719 20.09375 37.964844 19.605469 37.917969 Z M 17.839844 18.03125 C 17.808594 17.996094 17.785156 18.054688 17.789062 18.160156 C 17.792969 18.277344 17.816406 18.300781 17.847656 18.222656 C 17.875 18.148438 17.875 18.0625 17.839844 18.03125 Z M 17.839844 18.03125 "/>
<path style=" stroke:none;fill-rule:nonzero;fill:rgb(4.705882%,62.352941%,70.980392%);fill-opacity:1;" d="M 19.65625 37.921875 C 14.046875 37.355469 11.3125 34.730469 10.78125 29.421875 C 10.714844 28.765625 10.675781 23.6875 10.675781 15.378906 L 10.675781 2.367188 L 11.539062 1.964844 C 13.902344 0.863281 16.351562 0.238281 18.890625 0.09375 L 20.050781 0.0273438 L 20.050781 13.355469 C 20.050781 22.347656 20.085938 26.800781 20.15625 27.054688 C 20.292969 27.554688 20.746094 28.054688 21.3125 28.332031 L 21.777344 28.5625 L 38.105469 28.625 L 37.75 29.339844 C 36.167969 32.511719 33.378906 35.460938 30.117188 37.414062 L 29.082031 38.03125 L 24.789062 38.019531 C 22.425781 38.011719 20.117188 37.96875 19.65625 37.921875 Z M 19.65625 37.921875 "/>
</g>
</svg>
